<svg xmlns="http://www.w3.org/2000/svg" viewBox="0 0 13.55 15.45"><defs><style>.cls-1{fill:#c1272d;}</style></defs><title>burn</title><g id="Layer_2" data-name="Layer 2"><g id="Layer_1-2" data-name="Layer 1"><path class="cls-1" d="M6.77,15.45a6.89,6.89,0,0,1-6.54-5A6.85,6.85,0,0,1,1,5.1,21,21,0,0,1,4.72.26c.33-.34.35-.35.69,0A26.34,26.34,0,0,1,7.79,2.94c.25.32.24.43.56,0A16.87,16.87,0,0,1,9.58,1.67a.22.22,0,0,1,.37,0,12.68,12.68,0,0,1,3.49,6.05,6,6,0,0,1-.71,4.07A6.75,6.75,0,0,1,6.77,15.45Zm5.3-7c0-.05,0-.14,0-.23A11.08,11.08,0,0,0,9.9,3.86c-.17-.23-.3-.08-.41.06L8.33,5.33c-.33.41-.33.41-.63,0A32.52,32.52,0,0,0,5.57,2.6c-.5-.53-.5-.55-1,0A14.71,14.71,0,0,0,1.75,7.13a3.65,3.65,0,0,0-.29,1.48,5.86,5.86,0,0,0,1,3.05A5.22,5.22,0,0,0,8,13.81,5.49,5.49,0,0,0,12.07,8.49Z"/><path class="cls-1" d="M6.73,12.55A3.23,3.23,0,0,1,3.44,8.66a3.33,3.33,0,0,1,.62-1.3c.34-.46.71-.91,1-1.37.19-.26.3-.12.42,0L7.19,8.14l.51.65c.15.21.26.24.45,0,.34-.43.73-.83,1.08-1.25.19-.23.29-.17.43.06A3.2,3.2,0,0,1,6.73,12.55Z"/></g></g></svg>