<svg xmlns="http://www.w3.org/2000/svg" viewBox="0 0 37.73 29.72"><defs><style>.cls-1{fill:#f15a24;}.cls-2{font-size:13.01px;font-family:Arial-Black, Arial Black;font-weight:800;}.cls-2,.cls-3{fill:#fff;}</style></defs><title>me</title><g id="Layer_2" data-name="Layer 2"><g id="Layer_1-2" data-name="Layer 1"><path class="cls-1" d="M20.36,29.66a12.27,12.27,0,1,1,11-13.38,12.26,12.26,0,0,1-11,13.38"/><rect class="cls-1" x="-0.07" y="10.49" width="37.87" height="7.1" rx="3.55" transform="translate(-1.25 1.86) rotate(-5.47)"/><path class="cls-1" d="M31.8,11.85l.09.94L5.82,15.29l-.09-.95A13.09,13.09,0,1,1,31.8,11.85Z"/><text class="cls-2" transform="translate(8.54 19.16)">me</text><path class="cls-3" d="M24.67,24c0,2.21-2.46,4-5.5,4s-5.5-1.79-5.5-4c0-.11,0-.21,0-.32a39.09,39.09,0,0,0,5,.32,36.76,36.76,0,0,0,6-.47A2.42,2.42,0,0,1,24.67,24Z"/></g></g></svg>